<svg xmlns="http://www.w3.org/2000/svg" viewBox="0 0 24 24" fill="currentColor"><path d="M.045 18.02c.072-.116.187-.124.348-.022 3.636 2.11 7.594 3.166 11.87 3.166 2.852 0 5.668-.533 8.447-1.595.427-.16.79-.237 1.093-.237.466 0 .705.333.705.996 0 .367-.18.68-.533.93-1.733 1.097-3.997 1.897-6.787 2.4-1.373.24-2.667.36-3.887.36-4.467 0-8.507-1.166-12.12-3.5-.267-.166-.4-.367-.4-.6 0-.1.067-.2.2-.3zm6.445-4.6c0-.767.267-1.2.8-1.3.367-.066.8.034 1.3.3.467.234.7.567.7 1 0 .5-.2.9-.6 1.2-.333.266-.733.4-1.2.4-.533 0-.867-.167-1-.5v-1.1zm-2.4-3.6c0-1.167.467-2.067 1.4-2.7.867-.567 1.933-.85 3.2-.85 1.567 0 2.8.417 3.7 1.25.2.167.3.35.3.55 0 .233-.133.4-.4.5l-1.3.55c-.267.1-.467.05-.6-.15-.367-.5-.9-.75-1.6-.75-.733 0-1.267.2-1.6.6-.333.367-.5.85-.5 1.45v.1c0 .533.167.967.5 1.3.367.333.833.5 1.4.5.8 0 1.4-.267 1.8-.8.133-.2.333-.25.6-.15l1.3.5c.267.1.4.267.4.5 0 .2-.1.383-.3.55-.9.833-2.133 1.25-3.7 1.25-1.267 0-2.333-.283-3.2-.85-.933-.633-1.4-1.533-1.4-2.7v-.65zm16.555 8.1c-.467 0-1.1-.167-1.9-.5-.767-.333-1.167-.617-1.2-.85 0-.067.017-.133.05-.2.033-.067.083-.1.15-.1.067 0 .2.05.4.15.5.233 1.05.417 1.65.55.1.017.15.067.15.15 0 .233-.067.433-.2.6-.133.133-.3.2-.5.2h-.6zM13.3 9.52c0-.567.167-1 .5-1.3.367-.333.833-.5 1.4-.5.6 0 1.067.167 1.4.5.367.3.55.733.55 1.3v.1c0 .567-.183 1.017-.55 1.35-.333.3-.8.45-1.4.45-.567 0-1.033-.15-1.4-.45-.333-.333-.5-.783-.5-1.35v-.1zm6.2 0c0-.567.183-1 .55-1.3.367-.333.833-.5 1.4-.5.6 0 1.067.167 1.4.5.367.3.55.733.55 1.3v.1c0 .567-.183 1.017-.55 1.35-.333.3-.8.45-1.4.45-.567 0-1.033-.15-1.4-.45-.367-.333-.55-.783-.55-1.35v-.1z"/></svg>
