<svg xmlns="http://www.w3.org/2000/svg" viewBox="0 0 24 24" fill="currentColor"><path d="M12 0C5.373 0 0 5.373 0 12s5.373 12 12 12 12-5.373 12-12S18.627 0 12 0zm4.896 16.842c-.627.252-1.386.378-2.268.378-1.89 0-3.366-.63-4.428-1.89-.504-.594-.882-1.314-1.134-2.16-.252-.846-.378-1.8-.378-2.862 0-1.386.252-2.52.756-3.402.504-.882 1.26-1.512 2.268-1.89.504-.189 1.062-.315 1.674-.378.612-.063 1.134-.063 1.566 0 .432.063.756.189.972.378.216.189.324.441.324.756 0 .378-.153.693-.459.945-.306.252-.72.378-1.242.378-.378 0-.756-.063-1.134-.189-.378-.126-.693-.315-.945-.567-.252-.252-.378-.567-.378-.945 0-.189.063-.378.189-.567-.126.063-.252.126-.378.189-.63.315-1.134.756-1.512 1.323-.378.567-.693 1.26-.945 2.079-.252.819-.378 1.764-.378 2.835 0 .882.126 1.701.378 2.457.252.756.63 1.386 1.134 1.89.504.504 1.134.756 1.89.756.504 0 .945-.126 1.323-.378.378-.252.693-.567.945-.945.252-.378.441-.819.567-1.323.126-.504.189-1.008.189-1.512 0-.378-.063-.693-.189-.945-.126-.252-.315-.441-.567-.567-.252-.126-.567-.189-.945-.189-.315 0-.63.063-.945.189-.315.126-.567.315-.756.567-.189.252-.315.504-.378.756-.063.252-.063.504 0 .756.063.252.189.504.378.756.189.252.441.441.756.567.315.126.63.189.945.189.252 0 .504-.063.756-.189.252-.126.441-.252.567-.378.126-.126.189-.252.189-.378 0-.063-.063-.126-.189-.189-.126-.063-.252-.063-.378 0-.126.063-.252.189-.378.378-.126.189-.315.315-.567.378-.252.063-.504.063-.756 0-.252-.063-.441-.189-.567-.378-.126-.189-.189-.378-.189-.567 0-.252.063-.504.189-.756.126-.252.315-.441.567-.567.252-.126.504-.189.756-.189.315 0 .63.063.945.189.315.126.567.315.756.567.189.252.315.504.378.756.063.252.063.504 0 .756-.063.252-.189.504-.378.756-.189.252-.441.441-.756.567-.315.126-.63.189-.945.189-.504 0-.945-.126-1.323-.378-.378-.252-.693-.567-.945-.945-.252-.378-.441-.819-.567-1.323-.126-.504-.189-1.008-.189-1.512 0-.756.126-1.449.378-2.079.252-.63.63-1.134 1.134-1.512.504-.378 1.134-.567 1.89-.567.504 0 .945.126 1.323.378.378.252.693.567.945.945.252.378.441.819.567 1.323.126.504.189 1.008.189 1.512 0 .756-.126 1.449-.378 2.079-.252.63-.63 1.134-1.134 1.512z"/></svg>
