<svg xmlns="http://www.w3.org/2000/svg" viewBox="0 0 24 24" fill="currentColor"><path d="M8.559 2.445c0-.363.076-.605.306-.605h8.35c1.208 0 1.659 1.12 1.887 2.465l.378 2.143h1.086l-.151-6.293H4.57l-.075 6.293h1.01l.378-2.143c.152-1.269.454-2.465 1.738-2.465h.938v15.465c0 .544-.09.847-.393.923l-1.587.303v1.024h8.35v-1.024l-1.663-.303c-.303-.076-.468-.379-.468-.923V2.445zm8.274 19.11h6.596v-1.024l-1.36-.303c-.302-.076-.453-.379-.453-.923V6.603h-.999l-4.614 1.42v.771l1.587.303c.303.076.454.379.454.923v9.285c0 .544-.076.847-.378.923l-1.208.303v1.024h.375z"/></svg>
