<svg xmlns="http://www.w3.org/2000/svg" viewBox="0 0 24 24" fill="none">
  <circle cx="12" cy="12" r="10" fill="#E60023"/>
  <path d="M12 6C8.7 6 6 8.7 6 12C6 14.4 7.5 16.4 9.5 17.3C9.5 16.5 9.5 15.6 9.7 14.9C9.9 14.1 11 9.5 11 9.5C11 9.5 10.7 8.9 10.7 8C10.7 6.6 11.5 5.6 12.5 5.6C13.3 5.6 13.7 6.2 13.7 7C13.7 7.9 13.1 9.2 12.8 10.4C12.6 11.4 13.3 12.2 14.3 12.2C16.1 12.2 17.3 10.1 17.3 7.5C17.3 5.4 15.8 4 12.9 4C9.6 4 7.5 6.4 7.5 9.1C7.5 10 7.8 10.7 8.2 11.2C8.4 11.4 8.4 11.5 8.3 11.7C8.2 11.9 8.1 12.4 8 12.6C7.9 12.9 7.7 13 7.4 12.9C6.1 12.3 5.5 10.9 5.5 9.2C5.5 6.5 7.8 3.5 13.2 3.5C17.5 3.5 20 6.5 20 9.8C20 14.1 17.5 17.3 13.9 17.3C12.9 17.3 12 16.8 11.6 16.2L10.9 18.8C10.6 19.9 10.1 21 9.6 21.8C10.4 22 11.2 22 12 22C17.5 22 22 17.5 22 12C22 6.5 17.5 2 12 2C6.5 2 2 6.5 2 12C2 15.7 4 18.9 7 20.6" fill="white"/>
</svg>
