<svg xmlns="http://www.w3.org/2000/svg" viewBox="0 0 24 24" fill="currentColor"><path d="M15.337 23.979l7.216-1.561s-2.604-17.613-2.625-17.73c-.018-.116-.114-.192-.211-.192s-1.929-.136-1.929-.136-1.275-1.274-1.439-1.411c-.045-.037-.075-.057-.121-.074l-.914 21.104zm-2.507-17.639c-.083-.255-.169-.467-.261-.639l-.387-.453c-.142-.014-.278-.023-.387-.023-.7 0-1.038.249-1.335.654l-1.449 4.09-.027-.088c-.169-.523-.576-1.816-1.tried-2.381-.628-.747-1.457-.801-1.689-.801-.194 0-.756.019-.756.019s.612 2.095.64 2.193c.025.089.105.169.105.169s.432.199.691.502c.241.282.349.637.349 1.012 0 .262-.054.551-.162.886l-.705 2.359c-.166.555-.471.944-.854 1.162-.305.174-.666.262-1.078.262-.158 0-.323-.014-.493-.039l-.521 1.716s.357.067.841.067c1.233 0 2.181-.481 2.811-1.427.496-.742.862-1.729 1.085-2.933l.646-3.484c.271.157.58.236.924.236.556 0 1.039-.206 1.436-.612.375-.384.633-.891.768-1.509l.073-.355s-.282-.049-.604-.049c-.323 0-.652.041-.847.108zm1.181-1.719c-.024-.115-.046-.188-.046-.188s-1.593.33-1.639.341c-.046.01-.095.03-.134.068-.04.04-.074.098-.103.175l-.073.188c-.129.333-.289.747-.397 1.086.303-.169.689-.248 1.13-.248.064 0 .13.002.198.007.02-.187.077-.535.231-1.028.098-.313.183-.505.233-.601a.566.566 0 00.074-.149c.014-.046.024-.099.026-.151zM10.468.063c-.041 0-.077.012-.1.034-.727.663-1.058.665-1.46.665-.014 0-.029 0-.044.001-.023.001-.046.007-.067.02L7.794.95c-.02.013-.037.034-.041.06-.014.099-.01.208-.01.208s.474.047.944.239c.47.192.856.492 1.083.773.226.282.295.624.295.624.069 0 .277-.075.496-.217.22-.142.437-.346.583-.641.034-.069.064-.141.088-.218l.029-.114c.02-.086.03-.173.03-.257 0-.275-.096-.521-.282-.731-.316-.357-.75-.491-1.127-.575-.193-.044-.343-.06-.414-.038z"/></svg>
