<svg xmlns="http://www.w3.org/2000/svg" viewBox="0 0 24 24" fill="currentColor"><path d="M12.186 24h-.007c-3.581-.024-6.334-1.205-8.184-3.509C2.35 18.44 1.5 15.586 1.472 12.01v-.017c.03-3.579.879-6.43 2.525-8.482C5.845 1.205 8.6.024 12.18 0h.014c2.746.02 5.043.725 6.826 2.098 1.677 1.29 2.858 3.13 3.509 5.467l-2.04.569c-1.104-3.96-3.898-5.984-8.304-6.015-2.91.022-5.11.936-6.54 2.717C4.307 6.504 3.616 8.914 3.59 12c.025 3.086.718 5.496 2.057 7.164 1.43 1.783 3.631 2.698 6.54 2.717 2.623-.02 4.358-.631 5.8-2.045 1.647-1.613 1.618-3.593 1.09-4.798-.31-.71-.873-1.3-1.634-1.75-.192 1.352-.622 2.446-1.284 3.272-.886 1.102-2.14 1.704-3.73 1.79-1.202.065-2.361-.218-3.259-.801-1.063-.689-1.685-1.74-1.752-2.96-.065-1.182.408-2.256 1.33-3.022.88-.733 2.064-1.146 3.524-1.226 1.08-.056 2.088.042 3.011.293-.058-1.14-.244-1.986-.594-2.536-.419-.659-1.116-.992-2.073-1.003-1.532.012-2.537.672-2.984 1.964l-1.962-.576c.34-1.046.953-1.9 1.82-2.537.91-.667 2.056-1.009 3.406-.996h.02c1.583.019 2.81.59 3.646 1.7.707.933 1.097 2.265 1.176 4.012.449.203.862.44 1.234.713 1.408 1.032 2.215 2.524 2.345 4.16.175 2.163-.588 4.097-2.148 5.442-1.326 1.143-3.14 1.762-5.398 1.848h-.232c-3.585-.024-6.336-1.206-8.185-3.51C2.35 18.44 1.5 15.584 1.472 12.01v-.018c.03-3.578.879-6.429 2.525-8.48zM8.68 15.045c.048.878.467 1.586 1.18 1.996.605.346 1.394.493 2.22.447 1.075-.059 1.9-.446 2.455-1.151.524-.666.855-1.607.984-2.796-.848-.227-1.77-.322-2.752-.271-1.072.057-1.94.337-2.508.81-.53.44-.636.986-.579 1.565z"/></svg>
