<svg xmlns="http://www.w3.org/2000/svg" viewBox="0 0 24 24" fill="currentColor"><path d="M21.469 6.825c.84 1.537 1.318 3.3 1.318 5.175 0 3.979-2.156 7.456-5.363 9.325l3.295-9.527c.615-1.54.82-2.771.82-3.864 0-.405-.027-.78-.07-1.109m-7.981.105c.647-.034 1.23-.1 1.23-.1.58-.068.512-.924-.066-.892 0 0-1.745.137-2.871.137-1.058 0-2.837-.137-2.837-.137-.58-.032-.645.858-.066.892 0 0 .549.066 1.13.1l1.679 4.605-2.36 7.071-3.926-11.676c.647-.034 1.23-.1 1.23-.1.581-.068.513-.924-.065-.892 0 0-1.745.137-2.871.137-.2 0-.438-.008-.69-.02C4.587 2.888 8.063 1.2 12 1.2c2.947 0 5.63 1.127 7.64 2.97-.048-.003-.096-.008-.145-.008-.87 0-1.487.756-1.487 1.57 0 .73.42 1.347.87 2.076.337.596.727 1.358.727 2.461 0 .763-.29 1.649-.677 2.883l-.886 2.96-3.204-9.533zM12 22.8C10.056 22.8 8.22 22.318 6.6 21.471l3.42-9.935 3.506 9.607c.024.06.053.113.083.166-1.058.39-2.206.591-3.409.591zm-10.787-10.8c0-1.449.303-2.827.84-4.08l4.627 12.683C3.398 18.643 1.213 15.0 1.213 12zM12 0C5.373 0 0 5.373 0 12s5.373 12 12 12 12-5.373 12-12S18.627 0 12 0z"/></svg>
